<?xml version="1.0" encoding="iso-8859-1"?>
<!-- Generator: Adobe Illustrator 19.0.0, SVG Export Plug-In . SVG Version: 6.00 Build 0)  -->
<svg version="1.1" id="Capa_1" xmlns="http://www.w3.org/2000/svg" xmlns:xlink="http://www.w3.org/1999/xlink" x="0px" y="0px"
	 viewBox="0 0 490 490" style="enable-background:new 0 0 490 490;" xml:space="preserve">
<g>
	<path d="M418.7,294.9c-5.3,0-10.4,0.6-15.4,1.6l-52-106.6c11.7-19,18.4-41.3,18.4-65.1C369.8,56.2,313.7,0,245,0
		S120.2,56.2,120.2,124.8c0,23.4,6.5,45.4,17.9,64.2c-0.1,0.1-0.1,0.2-0.2,0.3l-52.2,107c-4.6-0.9-9.5-1.4-14.4-1.4
		c-39.5,0-70.7,31.2-70.7,69.7s32.3,69.7,70.7,69.7c38.5,0,70.7-31.2,70.7-69.7c0-19.2-7.8-36.7-20.5-49.3L167,222
		c16.3,13.1,35.9,22.2,57.3,25.9v105.7c-29.1,8.7-49.9,35.3-49.9,66.7c0,38.5,32.3,69.7,70.7,69.7s70.7-31.2,70.7-69.7
		c0-31.4-20.8-58-49.9-66.7V247.9c21.1-3.6,40.4-12.5,56.5-25.3l45.5,93.4c-12.3,12.6-19.9,29.7-19.9,48.6
		c0,38.5,32.3,69.7,70.7,69.7c38.5,0,70.7-31.2,70.7-69.7C489.5,326.1,458.3,294.9,418.7,294.9z M71.3,392.7
		c-15.6,0-29.1-12.5-29.1-29.1c0-15.6,12.5-29.1,29.1-29.1s29.1,13.5,29.1,29.1S86.9,392.7,71.3,392.7z M274.1,419.3
		c0,15.6-13.5,29.1-29.1,29.1s-29.1-12.5-29.1-29.1c0-15.6,12.5-29.1,29.1-29.1S274.1,403.7,274.1,419.3z M245,208.1
		c-46.8,0-84.3-37.5-84.3-83.2c0-45.8,38.5-83.2,84.3-83.2s84.3,37.5,84.3,83.2S291.8,208.1,245,208.1z M418.7,392.7
		c-15.6,0-29.1-12.5-29.1-29.1c0-15.6,12.5-29.1,29.1-29.1s29.1,13.5,29.1,29.1C447.9,379.2,434.3,392.7,418.7,392.7z"/>
</g>
<g>
</g>
<g>
</g>
<g>
</g>
<g>
</g>
<g>
</g>
<g>
</g>
<g>
</g>
<g>
</g>
<g>
</g>
<g>
</g>
<g>
</g>
<g>
</g>
<g>
</g>
<g>
</g>
<g>
</g>
</svg>
