<?xml version="1.0" encoding="iso-8859-1"?>
<!-- Generator: Adobe Illustrator 18.0.0, SVG Export Plug-In . SVG Version: 6.00 Build 0)  -->
<!DOCTYPE svg PUBLIC "-//W3C//DTD SVG 1.1//EN" "http://www.w3.org/Graphics/SVG/1.1/DTD/svg11.dtd">
<svg version="1.1" id="Capa_1" xmlns="http://www.w3.org/2000/svg" xmlns:xlink="http://www.w3.org/1999/xlink" x="0px" y="0px"
	 viewBox="0 0 494.08 494.08" style="enable-background:new 0 0 494.08 494.08;" xml:space="preserve">
<path d="M472.422,16.624c-30.783-30.78-93.91-17.597-140.952,29.465c-38.036,38.04-53.917,86.548-42.362,120.012
	c-47.566,60.487-18.99,86.534-41.674,118.347c-14.926,20.933-58.7,12.788-75.545,13.532c-46.114,2.038-66.743,30.724-69.62,71.717
	c-3.995,56.925-23.327,59.917-91.87,103.242c-12.375,7.841-1.16,26.703,11.622,19.555c97.286-54.286,93.799-47.91,114.396-137.363
	c1.689-7.337,7.94-14.259,14.95-17.189c35.836-14.982,79.693,21.52,127.064-25.938c9.534-8.618,20.047-28.51,22.527-50.997
	c2.924-25.193,1.779-37.191,22.657-60.871c33.447,11.127,81.571-4.751,119.346-42.545
	C490.004,110.527,503.211,47.408,472.422,16.624z"/>
<g>
</g>
<g>
</g>
<g>
</g>
<g>
</g>
<g>
</g>
<g>
</g>
<g>
</g>
<g>
</g>
<g>
</g>
<g>
</g>
<g>
</g>
<g>
</g>
<g>
</g>
<g>
</g>
<g>
</g>
</svg>
