<?xml version="1.0" encoding="iso-8859-1"?>
<!-- Generator: Adobe Illustrator 19.0.0, SVG Export Plug-In . SVG Version: 6.00 Build 0)  -->
<svg version="1.1" id="Capa_1" xmlns="http://www.w3.org/2000/svg" xmlns:xlink="http://www.w3.org/1999/xlink" x="0px" y="0px"
	 viewBox="0 0 489 489" style="enable-background:new 0 0 489 489;" xml:space="preserve">
<g>
	<path d="M430.7,156.256c-4.2-53.1-48.9-94.7-103-94.7c-14.6,0-29.1,3.1-41.6,8.3c-27-42.6-74.9-69.7-126.9-69.7
		c-82.2,0-148.8,65.6-148.8,146.7c0,13.5,2.1,28.1,6.2,41.6c-10.4,15.6-16.6,33.3-16.6,53.1c0,52,42.7,93.6,94.7,93.6h22.2
		c16.6,45.6,49.8,103.5,115.8,150.2c6.8,4.8,17.3,4.5,23.7,0c66.1-47.6,99.6-105.4,116.1-151.2h21.8c52,0,94.7-41.6,94.7-91.5
		C489,205.156,465.1,170.756,430.7,156.256z M244.5,443.056c-45.9-35.8-77.5-81.7-94-136.6c-5.9-19.6-8.8-37.1-10.1-50.8
		c11.8,3,24.2,4.6,37.1,4.6c29.2,0,54.2-7.9,67-12.8c12.8,4.9,37.8,12.8,67,12.8c13,0,25.4-1.5,37.1-4.6
		c-1.4,13.6-4.3,31.2-10.1,50.8C322,361.356,290.4,407.256,244.5,443.056z M394.3,292.556h-10c8.3-39.5,6.4-67.4,6.2-68.8
		c-0.5-7-10.9-23.5-30.4-16.4c-15.3,5.6-30.6,11.9-48.7,11.9c-31.7,0-57.8-12.3-58-12.4c-5.7-2.8-12.3-2.8-18,0
		c-0.3,0.1-26.4,12.4-58,12.4c-18.1,0-34.4-4.2-48.7-11.9c-18.2-9.9-29.9,9.4-30.4,16.4c-0.1,1.4-2.1,29.8,6.5,69.8H94.6
		c-30.2,0-54.1-23.9-54.1-53.1c0-12.5,5.2-26,14.6-35.4c5.2-6.2,7.3-14.6,4.2-21.8c-5.2-12.5-7.3-25-7.3-38.5
		c0-58.3,47.9-106.1,107.2-107.2c43.7,0,83.2,26,99.9,65.5c2.2,6.2,17.1,19.6,31.2,8.3c10.4-8.3,23.9-12.5,37.5-12.5
		c34.3,0,62.4,27,62.4,61.4c0,2.1-4.1,22.3,15.6,27c25,5.2,42.7,27,42.7,52C448.4,268.556,424.5,292.556,394.3,292.556z"/>
</g>
<g>
</g>
<g>
</g>
<g>
</g>
<g>
</g>
<g>
</g>
<g>
</g>
<g>
</g>
<g>
</g>
<g>
</g>
<g>
</g>
<g>
</g>
<g>
</g>
<g>
</g>
<g>
</g>
<g>
</g>
</svg>
