<?xml version="1.0" encoding="iso-8859-1"?>
<!-- Generator: Adobe Illustrator 18.0.0, SVG Export Plug-In . SVG Version: 6.00 Build 0)  -->
<!DOCTYPE svg PUBLIC "-//W3C//DTD SVG 1.1//EN" "http://www.w3.org/Graphics/SVG/1.1/DTD/svg11.dtd">
<svg version="1.1" id="Capa_1" xmlns="http://www.w3.org/2000/svg" xmlns:xlink="http://www.w3.org/1999/xlink" x="0px" y="0px"
	 viewBox="0 0 497.839 497.839" style="enable-background:new 0 0 497.839 497.839;" xml:space="preserve">
<g>
	<path d="M438.508,268.427H248.83c-10.718,0-19.429-8.701-19.429-19.425V59.324c0-5.466-2.3-10.676-6.342-14.356
		c-4.027-3.681-9.434-5.491-14.874-4.988C91.446,50.695,0,148.886,0,268.427C0,395.12,102.722,497.831,229.401,497.831
		c119.552,0,217.733-91.437,228.451-208.175c0.492-5.442-1.314-10.833-4.998-14.866
		C449.176,270.744,443.964,268.427,438.508,268.427z"/>
	<path d="M290.543,0.09c-0.593-0.058-1.199-0.083-1.791-0.083c-4.819,0-9.483,1.801-13.103,5.078
		c-4.026,3.673-6.341,8.893-6.341,14.349v189.664c0,10.725,8.711,19.426,19.423,19.426h189.663c5.476,0,10.684-2.301,14.367-6.345
		c3.679-4.035,5.49-9.443,4.997-14.882C487.664,97.542,400.294,10.157,290.543,0.09z M302.968,194.864V35.657
		c81.288,14.026,145.172,77.91,159.225,159.207H302.968z"/>
</g>
<g>
</g>
<g>
</g>
<g>
</g>
<g>
</g>
<g>
</g>
<g>
</g>
<g>
</g>
<g>
</g>
<g>
</g>
<g>
</g>
<g>
</g>
<g>
</g>
<g>
</g>
<g>
</g>
<g>
</g>
</svg>
