<?xml version='1.0' encoding='utf-8'?>
<!DOCTYPE svg PUBLIC '-//W3C//DTD SVG 1.1//EN' 'http://www.w3.org/Graphics/SVG/1.1/DTD/svg11.dtd'>
<svg version="1.1" xmlns="http://www.w3.org/2000/svg" viewBox="0 0 512 512" xmlns:xlink="http://www.w3.org/1999/xlink" enable-background="new 0 0 512 512">
  <g>
    <path d="m470.6,469.9l-43.4-70.4c25.6-23.4 41.6-57.1 41.6-94.5 0-56.5-36.6-104.5-87.3-121.5-46.6-81.6-141.1-164-145.1-167.5-7.7-6.6-19.1-6.6-26.7,0-17.6,15.2-171.3,151.2-171.3,248.4-7.10543e-15,101.8 82.8,184.7 184.7,184.7 29.3,0 58.3-7 84.3-20.3 10.6,2.9 21.8,4.4 33.3,4.4 18.7,0 36.5-4 52.5-11.2l42.8,69.3c5.9,9.6 18.5,12.6 28.1,6.7 9.4-6 12.4-18.5 6.5-28.1zm-247.6-61.6c-79.3,0-143.8-64.5-143.8-143.8 0-60.6 93.9-159.6 143.8-205.6 23.2,21.5 71.8,68.9 106.3,118.4-65.6,5.7-116.9,60.7-116.9,127.7 0,39.7 18.1,75.3 46.5,98.8-11.7,2.9-23.8,4.5-35.9,4.5zm32.7-103.3c0-46.9 38-84.9 84.9-84.9 46.9,0 84.9,38 84.9,84.9 0,46.9-38,84.9-84.9,84.9-46.9-0.1-84.9-38.1-84.9-84.9z"/>
  </g>
</svg>
